<?xml version="1.0" standalone="no"?>
<!DOCTYPE svg PUBLIC "-//W3C//DTD SVG 20010904//EN"
 "http://www.w3.org/TR/2001/REC-SVG-20010904/DTD/svg10.dtd">
<svg version="1.0" xmlns="http://www.w3.org/2000/svg"
 width="1024.000000pt" height="1024.000000pt" viewBox="0 0 1024.000000 1024.000000"
 preserveAspectRatio="xMidYMid meet">
<metadata>
Created by potrace 1.16, written by Peter Selinger 2001-2019
</metadata>
<g transform="translate(0.000000,1024.000000) scale(0.100000,-0.100000)"
fill="#000000" stroke="none">
<path d="M0 5120 l0 -5120 5120 0 5120 0 0 5120 0 5120 -5120 0 -5120 0 0
-5120z m6430 4597 c-16 -23 -62 -78 -100 -122 -60 -67 -86 -110 -162 -265 -50
-102 -127 -252 -171 -335 -149 -278 -221 -410 -306 -558 -34 -62 -89 -159
-120 -217 -32 -58 -107 -186 -166 -285 -106 -176 -161 -283 -151 -292 7 -8
303 16 476 38 85 11 171 19 190 18 19 0 57 2 84 7 36 5 47 4 42 -4 -10 -17
-240 -336 -386 -537 -68 -93 -157 -217 -197 -274 -41 -56 -94 -127 -118 -157
-25 -30 -67 -87 -94 -128 -71 -105 -227 -311 -299 -394 -33 -39 -76 -95 -95
-124 -19 -29 -85 -116 -146 -193 -61 -77 -150 -192 -198 -255 -48 -63 -112
-146 -143 -185 -32 -38 -88 -111 -126 -161 -68 -90 -220 -263 -401 -457 -51
-54 -93 -102 -93 -107 0 -11 -79 -74 -85 -68 -3 2 27 54 66 114 133 203 245
398 364 629 65 127 156 300 203 385 179 326 246 446 267 480 12 19 55 98 95
175 70 134 228 417 331 593 27 46 49 85 49 88 0 5 -139 -3 -357 -22 -94 -8
-214 -14 -265 -14 -51 1 -118 -3 -148 -9 -30 -5 -57 -7 -59 -5 -2 1 10 20 26
41 16 21 46 68 66 104 20 36 60 97 90 135 29 38 113 157 186 264 139 206 211
307 322 457 38 50 106 147 152 215 170 251 252 353 329 409 74 52 649 621 723
714 84 105 314 341 335 342 19 2 18 -1 -10 -40z m15 -283 c-27 -92 -187 -403
-242 -468 -44 -53 -32 -61 92 -59 130 3 515 30 633 44 96 11 308 25 602 39
113 5 246 12 295 16 50 3 100 2 111 -3 29 -11 134 -165 151 -223 8 -25 17
-100 20 -167 5 -102 3 -130 -12 -170 -35 -96 -464 -847 -806 -1410 -17 -30
-36 -50 -42 -46 -6 4 -8 0 -4 -10 3 -8 -1 -21 -9 -27 -11 -10 -14 -10 -14 0 0
9 -4 9 -17 -1 -15 -12 -16 -12 -8 1 5 8 10 20 10 25 0 11 99 199 150 285 18
30 56 100 85 155 30 55 81 147 116 205 34 58 88 155 121 215 33 61 98 180 145
265 47 85 114 210 149 278 63 121 64 125 63 200 -1 122 -37 235 -103 321 l-18
23 -279 -22 c-153 -12 -457 -37 -674 -55 -217 -19 -496 -40 -620 -46 -124 -6
-240 -15 -257 -19 -18 -5 -33 -7 -33 -5 0 2 22 39 48 82 58 93 235 436 287
554 20 46 44 95 53 109 l17 25 3 -28 c2 -15 -4 -52 -13 -83z m-995 -245 c0 -6
9 -9 19 -6 14 3 18 1 14 -9 -3 -8 -10 -11 -16 -7 -6 4 -7 1 -3 -6 5 -7 15 -10
25 -7 14 5 14 4 1 -6 -8 -7 -24 -30 -35 -51 -11 -21 -38 -60 -60 -87 -59 -71
-159 -197 -210 -262 -43 -54 -105 -101 -105 -78 0 13 -276 13 -425 0 -508 -44
-862 -72 -1095 -85 -257 -14 -460 -29 -725 -56 -60 -6 -210 -13 -332 -16 -121
-3 -225 -8 -231 -12 -5 -3 -28 -41 -51 -83 -47 -86 -56 -148 -31 -224 7 -21
84 -163 170 -314 86 -151 192 -340 235 -420 127 -235 168 -309 235 -425 105
-184 140 -255 140 -286 0 -16 -4 -29 -8 -29 -21 0 -98 97 -158 200 -128 219
-211 366 -304 535 -51 94 -123 222 -160 285 -213 365 -252 449 -252 534 1 72
23 135 90 256 l48 85 149 7 c83 3 209 11 280 17 72 6 220 16 330 21 110 6 259
15 330 20 72 6 375 26 675 45 893 58 1089 73 1111 89 11 7 66 76 122 152 119
161 227 267 227 223z m2433 -579 l2 -85 -86 -155 c-48 -85 -105 -191 -127
-235 -22 -44 -81 -154 -132 -245 -51 -91 -127 -228 -168 -305 -41 -77 -107
-196 -147 -265 -40 -69 -83 -144 -95 -167 -13 -24 -28 -43 -32 -43 -5 0 -7 4
-4 9 4 5 2 11 -3 13 -5 2 -3 19 5 38 11 25 17 31 23 21 7 -11 10 -11 17 0 4 8
3 14 -5 17 -9 3 -8 10 3 27 13 20 13 24 1 29 -21 8 -19 20 6 31 11 6 31 28 42
50 12 22 33 51 46 65 l25 24 -25 7 c-20 6 -21 7 -4 8 18 2 19 3 3 14 -21 17
-8 40 18 31 18 -6 18 -6 1 8 -17 13 -17 15 -3 27 9 8 19 11 22 8 4 -3 13 0 20
8 19 18 18 31 -1 15 -24 -20 -27 -6 -4 19 17 18 23 20 30 9 5 -7 9 -10 9 -6 0
3 3 14 7 23 5 14 2 16 -18 10 -21 -7 -22 -6 -10 8 7 9 17 14 22 11 5 -3 9 2 9
11 0 9 -4 13 -10 10 -6 -3 -7 1 -4 9 7 19 21 21 27 4 2 -7 3 -1 1 14 -2 15 1
30 6 33 6 3 10 13 10 21 0 9 7 22 15 30 8 9 15 22 15 31 0 13 -3 13 -15 3 -13
-11 -14 -10 -9 6 4 10 20 42 36 71 22 38 34 50 46 46 15 -4 15 -3 2 7 -11 9
-12 13 -2 17 6 2 10 8 7 13 -6 9 39 92 46 85 3 -2 5 5 6 16 1 10 11 32 22 48
12 16 21 31 21 34 0 5 98 188 169 317 23 41 65 121 94 177 60 119 67 117 70
-27z m-199 108 c-5 -7 -22 -33 -40 -58 -40 -57 -77 -119 -143 -245 -30 -55
-90 -165 -136 -245 -81 -144 -147 -262 -242 -435 -27 -49 -84 -151 -125 -225
-41 -74 -103 -187 -138 -250 -35 -63 -71 -128 -80 -145 -156 -278 -216 -387
-260 -470 -29 -55 -77 -140 -105 -190 -62 -106 -449 -806 -525 -950 -113 -213
-134 -251 -160 -290 -15 -22 -47 -78 -70 -125 -36 -70 -158 -287 -309 -550
-14 -25 -48 -85 -76 -134 -57 -101 -105 -160 -146 -181 -46 -24 -45 -17 4 21
26 20 47 41 47 46 0 6 20 45 44 87 23 42 61 108 83 146 22 39 71 129 108 200
38 72 83 153 100 180 18 28 51 87 73 132 23 44 67 123 98 175 31 51 89 158
128 238 69 141 214 412 341 635 34 61 72 133 85 160 13 28 51 95 83 150 33 55
91 159 128 230 63 120 67 132 51 143 -15 12 -15 12 4 9 16 -3 26 3 35 22 8 14
32 58 55 96 52 90 58 106 37 98 -11 -4 -14 -2 -11 8 3 8 -2 20 -11 27 -14 11
-13 11 7 2 12 -6 22 -7 22 -3 0 4 4 2 8 -5 6 -8 25 16 58 74 27 47 63 111 81
142 24 42 29 59 21 69 -8 10 -7 12 5 7 13 -5 25 14 57 82 22 48 47 95 55 104
9 10 11 20 5 30 -5 8 -10 20 -10 25 0 6 4 4 9 -4 12 -18 32 -5 24 16 -5 12 -3
14 7 8 10 -6 12 -4 7 9 -4 9 -3 14 2 11 9 -5 22 20 20 39 0 5 3 12 8 15 14 10
43 59 43 73 0 9 -3 9 -11 -2 -9 -13 -10 -13 -6 0 2 8 9 15 16 15 7 0 19 11 26
25 18 31 19 43 3 34 -7 -4 -8 -3 -4 5 4 6 11 9 16 6 8 -5 105 150 132 212 7
15 19 34 26 42 11 11 10 17 -4 32 -17 19 -17 20 3 34 20 14 38 55 24 55 -11 0
-81 69 -81 80 0 6 7 13 16 17 12 4 13 7 3 14 -17 10 -6 21 26 24 22 3 23 1 15
-16 -6 -10 -15 -19 -19 -19 -10 0 -24 -30 -18 -37 8 -8 37 10 37 23 0 8 5 14
10 14 6 0 10 11 10 25 0 16 -6 25 -15 25 -8 0 -15 5 -15 10 0 6 7 10 15 10 8
0 15 -5 15 -11 0 -6 8 -8 18 -5 20 7 36 -3 40 -24 2 -11 -1 -11 -11 3 -20 24
-30 21 -16 -4 7 -13 7 -19 1 -15 -6 3 -13 2 -17 -4 -4 -6 6 -10 23 -10 20 0
31 6 34 18 8 29 -2 41 -38 48 -19 3 -36 10 -39 14 -10 16 -55 -2 -55 -22 0
-10 -4 -17 -9 -13 -5 3 -12 1 -16 -5 -11 -17 -28 -11 -20 8 5 14 4 15 -6 5 -7
-7 -19 -13 -27 -13 -9 0 -5 8 11 20 14 11 28 20 31 20 4 0 12 5 19 10 7 6 21
18 32 26 11 9 0 5 -25 -9 -117 -63 -127 -72 -87 -80 12 -2 5 -3 -17 -2 -51 4
-66 -2 -66 -31 0 -13 -4 -24 -10 -24 -5 0 -10 -4 -10 -9 0 -5 18 -12 41 -16
50 -9 39 -24 -13 -18 -35 5 -36 6 -32 41 7 58 -11 24 -25 -46 -13 -66 -58
-165 -175 -384 -37 -71 -63 -128 -58 -128 6 0 13 6 15 13 4 9 6 9 6 -1 1 -8
-8 -16 -19 -19 -17 -4 -157 -239 -247 -413 -13 -25 -38 -70 -56 -100 -43 -74
-71 -124 -211 -373 -134 -238 -247 -437 -346 -607 -37 -63 -89 -155 -115 -205
-115 -212 -133 -245 -190 -348 -96 -174 -273 -467 -317 -526 -22 -29 -76 -90
-119 -135 l-79 -81 -7 -348 c-3 -191 -10 -350 -14 -352 -14 -9 -109 76 -147
132 -21 32 -63 103 -92 158 -72 136 -185 331 -283 489 -44 72 -92 152 -105
178 l-24 48 43 67 c24 37 83 108 131 158 84 86 89 89 103 71 8 -11 15 -16 15
-12 0 13 27 -18 44 -52 15 -30 14 -36 -7 -33 -8 1 18 -54 36 -77 8 -10 13 -10
25 0 13 11 14 10 3 -9 -8 -16 -8 -23 -1 -23 6 0 9 -4 6 -9 -7 -10 33 -57 45
-54 8 3 13 -21 7 -31 -2 -3 8 -17 22 -32 14 -15 18 -24 10 -20 -8 4 -5 -1 7
-12 12 -11 20 -22 16 -25 -7 -8 41 -89 79 -133 45 -51 63 -58 93 -37 24 18 24
20 25 171 0 87 -4 152 -9 152 -5 0 -12 -8 -14 -17 -3 -10 -5 9 -5 42 1 48 2
53 7 25 l7 -35 7 34 c4 18 7 66 7 106 0 67 2 75 38 126 43 60 206 335 297 499
84 152 183 328 215 380 15 25 45 77 67 115 23 39 110 189 195 335 85 146 174
301 198 345 24 44 80 148 125 230 45 83 124 229 175 325 51 96 102 187 112
203 l19 27 -33 1 c-18 0 -111 0 -205 0 -95 0 -173 3 -173 8 0 5 -9 7 -21 4
-16 -4 -17 -8 -7 -14 10 -7 9 -9 -3 -9 -20 0 -52 46 -43 62 4 6 3 8 -4 5 -13
-9 -78 65 -127 145 -21 35 -54 80 -73 100 l-35 37 55 73 c30 40 72 98 93 129
46 67 17 61 405 84 140 9 293 20 340 25 188 21 537 50 730 61 113 6 207 13
209 15 2 2 15 4 28 4 17 0 22 -4 17 -12z m-2814 -217 c0 -4 -12 -26 -26 -47
-15 -21 -47 -80 -72 -130 -24 -51 -68 -123 -97 -161 -29 -37 -87 -119 -129
-180 l-76 -113 -51 0 c-31 0 -48 4 -44 10 3 6 12 10 19 10 7 0 55 52 105 115
51 64 97 113 102 109 5 -3 8 -2 7 3 -5 13 74 143 105 175 29 28 29 28 5 28
-15 0 -40 -17 -69 -47 -87 -91 -65 -84 -296 -93 -114 -5 -278 -18 -363 -29
-85 -11 -189 -23 -230 -26 -166 -15 -387 -72 -383 -99 1 -10 182 -129 221
-146 12 -5 22 -14 22 -20 0 -6 4 -9 9 -6 5 3 14 -1 20 -8 10 -12 8 -13 -8 -9
-11 3 -25 11 -31 18 -6 8 -17 12 -24 9 -8 -3 -16 2 -20 11 -6 17 -26 12 -26
-6 0 -6 4 -8 8 -5 4 3 13 -8 19 -24 9 -25 9 -28 -6 -22 -14 5 -14 4 -2 -12 12
-14 12 -19 2 -26 -8 -4 -10 -13 -6 -20 6 -9 9 -9 16 1 6 10 9 8 9 -8 0 -12 6
-24 13 -26 9 -4 8 -8 -3 -16 -13 -9 -12 -11 5 -11 16 0 17 -2 5 -10 -12 -7
-12 -12 -2 -22 9 -9 12 -9 12 0 0 7 5 12 11 12 5 0 8 -4 5 -9 -3 -5 4 -11 15
-14 16 -4 20 -10 14 -24 -16 -38 -22 -79 -14 -98 7 -19 8 -19 8 3 1 30 21 28
21 -3 0 -16 6 -25 16 -25 11 0 13 -6 9 -19 -3 -11 -1 -22 4 -26 7 -3 8 0 5 9
-3 9 -1 16 5 16 6 0 11 -9 11 -20 0 -22 28 -28 47 -9 7 7 14 1 23 -20 14 -35
35 -42 27 -10 -3 12 -3 18 0 15 3 -3 12 2 20 12 11 14 12 14 7 1 -5 -16 25
-33 51 -30 6 1 1 -6 -9 -14 -11 -8 -26 -15 -33 -15 -11 0 -11 -5 -3 -20 6 -11
7 -20 3 -20 -4 0 -1 -5 7 -10 13 -9 13 -11 0 -20 -12 -9 -12 -10 5 -8 15 2 19
-2 17 -17 -3 -16 -1 -18 9 -7 10 9 10 15 1 24 -17 17 -15 33 2 19 10 -8 16 -9
21 -1 3 5 -1 10 -10 10 -9 0 -13 5 -10 10 3 6 1 10 -4 10 -6 0 -11 -6 -11 -12
0 -9 -4 -8 -10 2 -5 8 -10 20 -10 25 0 6 5 3 10 -5 8 -13 10 -12 10 3 0 9 5
17 11 17 5 0 7 -5 3 -12 -5 -7 -2 -9 9 -5 12 4 14 2 10 -10 -4 -9 -2 -14 3
-10 6 3 10 -3 11 -13 1 -11 -3 -22 -8 -26 -6 -4 -6 -11 2 -20 9 -11 8 -14 -5
-14 -9 0 -16 -4 -16 -10 0 -5 5 -9 12 -7 7 1 12 -12 12 -34 0 -27 4 -36 16
-34 15 2 15 5 11 43 -2 15 -3 15 -11 -3 -11 -25 -11 1 0 35 8 24 8 24 9 3 1
-13 5 -23 11 -23 5 0 9 -3 9 -7 -3 -20 2 -30 16 -30 9 0 14 6 11 14 -8 21 2
15 15 -8 7 -13 7 -19 1 -15 -6 3 -13 2 -17 -4 -3 -5 2 -10 12 -10 21 0 78 -94
67 -112 -4 -6 -3 -8 3 -5 5 3 29 -31 53 -76 24 -45 52 -95 64 -112 15 -22 16
-26 3 -17 -28 23 -36 9 -9 -18 13 -14 21 -18 16 -10 -7 13 -5 13 9 1 21 -17
23 -43 2 -35 -23 9 -18 -12 10 -41 22 -21 23 -25 8 -26 -10 0 -13 -3 -6 -5 7
-3 2 -15 -13 -31 -14 -15 -22 -33 -20 -40 3 -7 1 -13 -4 -13 -6 0 -10 -4 -10
-10 0 -5 7 -10 15 -10 8 0 15 -5 15 -12 0 -6 3 -8 6 -5 4 4 1 13 -6 22 -11 13
-8 15 24 15 20 0 36 5 36 10 0 6 6 10 14 10 22 0 30 -38 12 -56 -22 -22 -20
-27 7 -13 20 11 21 11 8 -4 -7 -10 -24 -17 -38 -17 l-24 0 25 27 c15 16 22 31
17 36 -13 13 -31 -1 -25 -17 3 -8 1 -17 -5 -21 -6 -3 -11 1 -11 9 0 9 -5 16
-10 16 -7 0 -7 -6 -2 -17 5 -10 7 -23 5 -29 -2 -6 10 -14 27 -17 38 -8 39 -24
0 -32 -21 -5 -30 -12 -30 -27 0 -18 2 -19 17 -7 15 12 16 12 10 -3 -4 -12 -2
-15 7 -12 8 3 17 0 22 -7 4 -8 3 -10 -4 -5 -7 4 -12 1 -12 -8 0 -8 6 -16 13
-19 7 -2 1 -10 -15 -17 -15 -7 -25 -16 -23 -21 3 -4 1 -10 -3 -13 -5 -3 -7
-26 -5 -52 3 -34 1 -44 -7 -39 -9 6 -9 2 -1 -14 7 -11 17 -21 24 -21 8 0 7 4
-3 11 -10 7 -11 12 -3 15 8 4 9 14 3 35 -5 17 -5 29 1 29 5 0 10 -12 10 -27 1
-16 2 -35 3 -43 1 -8 -8 -26 -19 -39 l-20 -24 25 13 c14 7 22 9 18 5 -4 -4 0
-14 10 -22 9 -8 11 -11 3 -7 -10 5 -13 3 -8 -9 4 -11 2 -14 -9 -10 -8 3 -13
12 -10 19 3 8 0 11 -9 8 -11 -5 -9 -16 12 -58 24 -50 25 -55 11 -82 -8 -16
-52 -100 -98 -188 l-83 -159 -18 24 c-10 13 -53 87 -97 164 -144 254 -338 598
-397 705 -32 58 -75 134 -95 170 -21 36 -60 106 -87 155 -28 50 -62 110 -75
135 -91 162 -137 247 -183 330 -88 163 -215 391 -270 485 -190 328 -257 447
-253 450 2 3 139 12 304 20 164 9 418 24 564 35 146 10 380 26 520 35 140 8
329 20 420 26 91 6 217 15 280 19 63 4 125 8 138 8 12 1 22 -2 22 -7z m-2428
-163 c47 -71 120 -195 211 -358 151 -271 272 -488 355 -640 46 -85 116 -211
155 -280 162 -288 297 -532 297 -536 0 -3 42 -78 93 -167 51 -89 125 -218 164
-287 38 -69 102 -181 141 -250 39 -69 85 -155 103 -191 l32 -67 -45 -100 -45
-101 -58 112 c-32 62 -84 157 -115 212 -31 55 -83 150 -115 210 -32 61 -83
155 -115 210 -108 190 -189 339 -460 850 -79 149 -199 371 -268 495 -69 124
-157 281 -195 350 -38 69 -103 181 -144 249 -113 186 -111 180 -71 267 18 40
36 73 40 74 3 0 22 -24 40 -52z m6588 -779 c0 -7 11 -8 30 -4 20 4 30 3 30 -5
0 -6 5 -8 11 -5 25 16 -14 -128 -64 -237 -33 -71 -91 -148 -113 -148 -14 -1
-54 -37 -54 -49 0 -6 -6 -11 -13 -11 -8 0 -22 -9 -32 -20 -10 -11 -22 -17 -26
-14 -5 3 -6 -1 -3 -9 3 -10 -42 -45 -145 -113 -275 -181 -561 -363 -711 -454
-58 -35 -170 -104 -250 -153 -80 -49 -174 -104 -210 -121 -36 -18 -83 -43
-104 -55 -102 -58 -197 -102 -208 -95 -7 4 -10 4 -6 -1 10 -11 -58 -46 -76
-39 -15 6 -50 -19 -40 -29 3 -2 -2 -7 -10 -10 -12 -5 -11 3 5 34 12 21 19 46
15 54 -3 8 -1 17 4 20 6 4 10 18 10 33 0 34 45 122 100 198 24 32 46 61 50 64
3 3 21 25 40 50 19 25 38 47 42 48 5 2 8 8 8 13 0 6 11 22 25 37 14 15 25 32
25 37 0 24 175 165 204 165 3 0 106 60 229 134 123 73 253 150 288 170 35 20
138 84 229 142 91 59 194 123 230 144 36 20 103 60 150 89 47 29 74 43 61 32
-25 -23 -21 -27 10 -11 17 10 18 9 7 -15 -6 -14 -15 -25 -20 -25 -4 0 -8 -4
-8 -10 0 -5 7 -7 15 -4 8 4 15 12 15 20 0 17 16 18 24 2 3 -7 3 -3 1 9 -3 12
0 25 6 29 8 4 9 3 5 -4 -4 -7 -2 -12 3 -12 6 0 11 7 11 15 0 8 -5 15 -11 15
-5 0 -7 5 -3 12 5 8 2 9 -10 5 -22 -9 -11 10 14 23 16 9 18 8 14 -5 -4 -8 -1
-22 6 -30 6 -8 8 -20 4 -27 -4 -7 2 -4 14 6 25 22 29 41 7 33 -8 -4 -17 -2
-20 4 -4 5 -3 9 2 8 20 -4 24 2 12 18 -12 15 -12 16 1 8 25 -15 40 -14 40 3 0
13 3 13 12 4 9 -9 10 -15 2 -20 -25 -16 -44 -72 -24 -72 5 0 7 6 5 13 -6 18
32 60 47 51 10 -6 11 -4 1 7 -20 21 -15 28 15 25 39 -5 75 11 68 29 -3 8 -1
15 4 15 6 0 10 -5 10 -11z m-7686 -191 c-4 -6 -1 -9 7 -6 14 5 69 -17 69 -28
0 -3 -3 -3 -7 -1 -5 3 -17 -7 -27 -20 l-19 -26 31 23 32 24 77 -38 c43 -21
130 -69 193 -106 63 -37 158 -91 210 -120 52 -29 190 -107 305 -175 433 -252
681 -389 754 -416 88 -33 91 -37 205 -219 145 -231 227 -380 240 -432 l6 -26
-53 28 c-28 16 -131 62 -227 103 -206 89 -312 140 -435 212 -102 59 -164 93
-350 190 -71 37 -134 71 -140 76 -5 4 -67 36 -137 72 -69 35 -139 73 -155 84
-15 12 -98 56 -183 100 -85 44 -174 91 -197 106 -24 15 -47 27 -52 27 -5 0
-18 10 -28 23 -10 12 -26 21 -35 19 -14 -3 -17 3 -16 23 2 15 7 24 15 21 7 -3
10 1 6 10 -3 9 -13 13 -22 10 -9 -3 -7 1 5 10 24 17 22 56 -2 47 -8 -3 -14 0
-14 6 0 6 5 11 10 11 6 0 10 4 10 8 0 5 -13 7 -30 4 -27 -4 -30 -2 -30 23 l0
28 -20 -23 -20 -24 2 25 c2 13 12 30 23 37 19 12 18 13 -7 7 -23 -4 -28 -2
-28 14 0 11 5 23 10 26 6 3 10 -1 10 -10 0 -9 4 -14 8 -11 4 2 7 17 6 33 -1
21 -6 27 -19 25 -17 -3 -17 -2 -1 13 21 21 21 36 -1 28 -15 -6 -16 -5 -3 9 8
9 18 14 23 11 4 -2 8 7 9 21 0 14 1 31 2 36 1 6 -2 10 -7 10 -4 0 -14 5 -21
12 -17 16 0 42 21 34 8 -3 12 -2 8 3 -3 5 1 12 7 15 7 4 3 4 -9 2 -15 -3 -20
0 -16 10 3 9 0 13 -8 11 -8 -2 -11 -2 -6 0 4 3 7 11 7 19 0 9 5 12 10 9 6 -4
7 -11 4 -17z m7541 -608 c8 0 11 -8 8 -22 -4 -20 -2 -19 12 5 17 29 27 35 23
15 -2 -7 5 -13 14 -13 9 0 20 -4 24 -8 4 -4 2 -7 -5 -7 -7 0 -10 -4 -7 -9 3
-5 -18 -19 -47 -31 -74 -32 -464 -246 -907 -500 -165 -94 -927 -489 -1165
-604 -109 -52 -149 -63 -64 -17 25 14 33 24 31 40 -2 14 2 21 13 21 8 0 21 11
27 25 6 14 17 25 23 25 7 0 20 9 30 20 10 11 27 20 37 20 11 0 17 4 14 9 -7
10 20 9 30 -2 14 -14 25 -6 19 13 -4 11 -2 20 4 20 6 0 10 -6 9 -12 -2 -8 6
-12 22 -11 62 5 91 11 98 18 4 5 1 5 -7 0 -9 -5 -12 -4 -8 3 4 5 16 8 26 5 10
-3 22 0 25 6 4 6 16 11 27 11 10 0 19 5 19 10 0 6 7 10 15 10 8 0 15 7 15 16
0 9 7 14 18 13 18 -2 72 17 72 25 0 3 -6 3 -14 0 -7 -3 -16 2 -19 10 -4 10 -1
13 9 9 7 -3 14 0 14 6 0 6 9 11 21 11 12 0 17 4 13 11 -3 6 -15 9 -25 6 -12
-3 -19 0 -19 9 0 8 -6 11 -15 8 -8 -4 -15 -4 -15 -1 0 3 51 32 113 65 61 32
141 75 177 94 36 19 135 73 220 118 85 46 184 101 218 123 52 33 66 37 74 26
8 -12 9 -12 6 0 -5 19 97 88 237 159 61 30 162 85 225 120 161 91 242 132 251
126 4 -2 10 0 14 6 4 6 10 8 14 6 4 -3 13 -1 21 4 9 6 16 6 18 0 2 -6 10 -10
17 -10z m-7397 -232 c8 -8 15 -8 26 2 13 10 17 9 22 -4 3 -9 10 -14 14 -11 12
8 101 -35 95 -45 -3 -6 0 -7 8 -4 13 4 67 -19 302 -131 39 -18 117 -54 175
-80 58 -26 148 -71 201 -101 53 -30 134 -70 180 -89 46 -18 163 -73 259 -120
197 -98 378 -179 496 -224 43 -16 106 -40 139 -52 114 -43 180 -103 230 -210
l25 -54 -23 -4 c-13 -2 -103 37 -232 102 -115 58 -268 132 -340 165 -181 83
-395 189 -492 245 -45 26 -84 47 -87 47 -17 0 -409 202 -636 328 -152 85 -281
152 -293 152 -11 0 -89 51 -109 71 -18 18 -17 19 23 28 3 0 10 -4 17 -11z
m7171 -125 c-12 -15 -12 -16 3 -10 13 4 16 1 13 -15 -5 -22 -15 -37 -15 -22 0
5 -4 15 -8 22 -10 15 -43 5 -36 -11 2 -7 -7 -24 -21 -40 -25 -26 -26 -47 -4
-47 6 0 8 4 5 9 -12 18 5 39 27 34 15 -3 18 -2 9 4 -13 10 -7 43 8 43 5 0 11
-9 15 -19 3 -12 12 -18 20 -15 8 3 11 12 8 20 -3 8 0 14 6 14 6 0 11 -8 11
-17 1 -16 2 -16 12 1 8 15 7 21 -6 28 -9 5 -16 14 -16 19 0 6 7 3 16 -5 8 -9
20 -16 25 -16 5 0 2 -11 -7 -25 -9 -14 -20 -23 -24 -20 -5 3 -11 1 -14 -4 -4
-5 3 -12 14 -16 11 -4 18 -11 15 -16 -4 -5 1 -9 9 -9 18 0 21 11 6 26 -7 7 -1
11 20 11 16 0 30 -4 30 -9 0 -4 -4 -8 -10 -8 -5 0 -10 -7 -10 -15 0 -14 -13
-20 -34 -16 -5 1 -3 -5 4 -14 12 -14 15 -14 31 4 11 11 19 25 19 30 0 5 5 13
12 17 7 4 8 3 4 -4 -4 -7 -2 -12 3 -12 6 0 11 4 11 10 0 5 7 6 17 3 12 -5 14
-3 8 7 -6 9 -1 8 14 -3 13 -8 30 -13 37 -10 8 3 14 0 14 -6 0 -6 -3 -10 -7
-10 -20 3 -34 -2 -29 -10 7 -11 46 -2 46 11 0 5 5 6 10 3 6 -3 10 -1 10 5 0 7
7 10 15 6 8 -3 18 2 23 11 6 9 14 13 22 8 9 -6 9 -9 -1 -16 -11 -7 -10 -9 4
-9 9 0 17 5 17 10 0 6 8 10 18 10 10 0 23 4 30 10 7 6 7 5 0 -3 -20 -21 -479
-297 -920 -553 -205 -119 -777 -438 -961 -536 -94 -50 -235 -125 -312 -166
-77 -41 -232 -122 -345 -179 -113 -58 -209 -109 -214 -114 -24 -22 -27 -6 -4
19 26 27 203 379 210 417 2 12 10 19 20 17 9 -1 18 4 21 11 8 21 317 193 612
340 61 30 175 91 255 134 398 219 562 309 654 362 56 32 137 77 181 101 44 23
116 64 160 90 75 45 105 53 131 37 7 -4 12 2 12 18 0 21 -2 22 -15 9 -8 -7
-20 -14 -26 -14 -18 0 2 15 78 59 81 46 82 47 64 24z m-6924 -169 c14 -9 22
-21 19 -26 -4 -6 2 -8 15 -3 20 6 21 5 9 -14 -7 -12 -16 -21 -21 -21 -4 0 -5
5 -1 11 4 7 -1 7 -16 -1 -18 -10 -24 -9 -31 1 -6 9 -9 10 -9 2 0 -6 7 -18 15
-27 8 -8 15 -19 15 -24 0 -17 30 -22 37 -6 3 8 12 13 19 10 8 -3 14 1 14 10 0
12 -4 12 -20 4 -13 -7 -20 -7 -20 -1 0 12 40 35 40 24 0 -4 4 -3 8 4 5 8 25 0
64 -28 32 -21 60 -39 63 -39 3 0 22 -11 43 -24 113 -71 536 -297 999 -532 134
-68 350 -178 480 -246 131 -67 255 -131 275 -141 l38 -19 -60 -116 c-32 -65
-64 -130 -69 -145 -6 -16 -14 -27 -19 -25 -117 52 -1111 559 -1435 731 -132
70 -300 160 -375 199 -76 39 -148 79 -162 88 -14 10 -45 29 -69 42 -37 21 -44
30 -47 59 -1 19 0 29 2 22 4 -9 13 -9 30 -2 35 13 40 12 52 -13 11 -22 11 -21
6 5 -5 21 -1 32 15 46 11 10 18 21 14 25 -3 3 -1 6 6 6 8 0 10 -7 6 -21 -5
-15 -4 -19 4 -15 6 4 11 14 11 22 0 8 5 15 10 15 20 3 25 4 39 13 10 7 12 3 6
-15 -7 -22 -6 -22 21 6 29 30 36 47 12 28 -7 -6 -20 -10 -28 -10 -8 0 -26 -3
-38 -7 -21 -7 -23 -6 -13 12 14 26 14 32 1 32 -5 0 -9 -5 -7 -11 1 -6 -4 -14
-11 -16 -11 -4 -12 -1 -2 16 13 25 36 23 34 -3 -1 -9 2 -16 7 -16 12 0 11 14
-3 45 -14 30 -24 32 -38 5 -13 -25 -30 -26 -23 -2 2 9 23 30 45 46 38 27 39
30 22 43 -25 19 -8 16 21 -3z m6920 -484 c4 -6 10 -8 15 -5 5 3 11 1 15 -5 3
-5 1 -10 -5 -10 -6 0 -8 -4 -5 -10 3 -5 1 -10 -6 -10 -7 0 -9 -3 -6 -7 4 -3
16 2 27 12 11 10 20 14 20 10 0 -5 5 -4 12 3 7 7 17 12 23 12 7 0 6 -3 -1 -8
-16 -10 -44 -72 -33 -72 5 0 9 4 9 10 0 5 16 9 35 7 30 -2 34 -5 28 -22 -5
-17 -4 -18 11 -6 20 16 20 16 0 35 -8 9 -11 16 -5 16 5 0 17 -7 25 -16 9 -8
20 -12 26 -9 5 3 10 4 10 2 0 -7 -262 -165 -500 -300 -58 -33 -152 -87 -208
-119 -57 -33 -192 -106 -300 -163 -109 -56 -287 -149 -397 -207 -110 -58 -326
-169 -480 -248 -601 -307 -733 -375 -816 -421 -48 -26 -137 -73 -199 -104
l-113 -57 30 39 c44 56 103 151 133 214 54 116 56 117 525 353 305 153 868
443 1015 523 41 22 212 112 380 200 633 332 600 316 618 301 14 -11 15 -11 9
6 -6 16 -5 17 8 6 13 -11 14 -10 9 4 -7 17 32 39 51 28 16 -10 45 -9 45 1 0 5
-9 7 -20 4 -20 -5 -26 3 -13 16 9 10 21 9 28 -3z m-6180 -569 c358 -178 722
-357 809 -398 87 -42 186 -91 219 -110 33 -20 85 -46 116 -58 31 -13 162 -74
291 -137 129 -63 269 -131 310 -151 66 -31 79 -42 106 -89 17 -29 61 -102 98
-162 61 -101 77 -136 59 -136 -4 0 -228 110 -498 244 -269 134 -661 326 -870
426 -336 161 -595 290 -985 492 -319 166 -343 181 -414 252 -57 57 -66 70 -53
78 9 5 14 14 11 22 -6 15 14 33 36 33 8 1 24 4 34 9 14 5 17 4 11 -5 -6 -10
-3 -11 13 -2 28 15 35 14 29 -3 -4 -10 -1 -13 8 -10 8 3 11 13 8 21 -4 9 -2
14 3 12 5 -2 302 -150 659 -328z m5791 -48 c-4 -10 -4 -14 -1 -11 4 4 18 3 32
-3 27 -10 76 -2 67 12 -3 5 -1 9 4 9 5 0 12 -9 15 -20 4 -17 -5 -26 -46 -50
-29 -16 -56 -30 -60 -30 -5 0 -21 -8 -35 -19 -30 -20 -260 -144 -479 -257 -77
-40 -197 -104 -265 -142 -68 -38 -186 -102 -263 -142 -77 -40 -267 -142 -423
-226 -439 -237 -572 -298 -616 -281 -15 6 -15 9 -2 34 28 54 42 63 426 270
304 164 781 414 970 508 52 26 163 85 246 131 84 46 164 88 179 94 15 6 58 28
95 50 40 23 75 37 84 34 12 -5 15 -2 10 10 -5 13 -2 15 12 10 11 -4 15 -3 11
1 -4 5 3 15 15 22 30 16 31 16 24 -4z m-6242 -222 c6 -10 88 -7 106 4 6 4 196
-85 423 -198 227 -112 518 -255 647 -317 323 -156 997 -497 1032 -521 48 -34
28 -79 -35 -79 -13 0 -84 31 -158 69 -303 155 -549 277 -819 407 -747 358
-1182 583 -1208 625 -7 10 -8 19 -3 19 6 0 12 -4 15 -9z m2166 -2 c0 -6 9 -24
21 -40 19 -28 21 -28 45 -13 19 13 27 14 39 4 12 -10 15 -10 16 1 0 8 4 5 9
-6 8 -19 9 -19 9 3 1 22 21 33 21 11 0 -6 7 -9 14 -6 10 4 13 1 10 -7 -3 -8 0
-17 7 -22 8 -4 10 -3 5 4 -4 7 -5 12 -2 12 10 0 56 -102 51 -111 -3 -4 -1 -10
5 -14 5 -3 10 0 10 7 1 7 12 -7 24 -32 13 -25 22 -48 19 -52 -2 -5 0 -8 6 -8
10 0 27 -39 23 -53 -1 -5 2 -6 7 -3 12 8 83 -123 74 -137 -4 -6 -1 -7 7 -2 10
6 12 1 7 -21 -3 -16 -4 -23 -1 -16 9 19 20 14 32 -13 15 -32 15 -45 1 -25 -8
11 -12 12 -16 3 -2 -7 -11 -13 -18 -13 -7 0 -15 -9 -18 -20 -3 -11 -2 -20 3
-20 19 0 17 -32 -3 -51 l-22 -21 23 12 c22 11 23 10 18 -8 -4 -11 -2 -23 3
-27 7 -4 8 1 4 11 -4 12 -3 15 5 10 15 -9 16 6 1 21 -7 7 -6 12 6 17 10 4 14
2 9 -5 -4 -6 0 -16 7 -21 11 -7 11 -11 2 -15 -7 -2 -13 -13 -13 -23 0 -20 -23
-43 -33 -33 -4 3 -7 -1 -7 -11 0 -11 4 -14 13 -9 6 4 21 9 32 11 20 3 20 3 0
-13 -16 -12 -17 -14 -2 -9 13 5 16 2 11 -10 -3 -9 -14 -16 -23 -17 -11 0 -8
-3 7 -10 15 -6 30 -5 43 1 18 10 24 3 20 -22 0 -5 3 -8 9 -8 5 0 0 -16 -11
-35 -12 -20 -16 -35 -10 -35 6 0 10 -3 9 -7 -1 -5 4 -19 11 -33 l14 -25 -28
25 c-28 26 -105 174 -105 203 0 9 6 17 13 17 8 0 7 3 -3 10 -9 6 -17 5 -21 -2
-4 -5 -20 14 -36 44 -16 29 -81 143 -144 253 -147 254 -231 415 -219 415 6 0
10 -5 10 -11z m4850 -783 c0 -2 -15 -46 -34 -97 -18 -52 -39 -120 -46 -152
-13 -64 -28 -77 -87 -77 -21 0 -122 -7 -224 -17 l-186 -17 -17 -81 c-20 -95
-66 -344 -66 -363 0 -10 10 -12 38 -8 77 13 326 36 330 31 6 -6 -45 -184 -69
-242 -18 -42 -19 -43 -66 -43 -26 0 -86 -7 -133 -16 -47 -8 -101 -13 -120 -12
l-35 3 -40 -217 c-21 -120 -36 -220 -33 -223 4 -4 46 -2 95 4 139 17 397 41
400 37 3 -3 -51 -257 -63 -297 -3 -12 -24 -18 -87 -23 -45 -4 -149 -15 -232
-26 -82 -11 -215 -26 -295 -35 -80 -9 -162 -19 -182 -22 -36 -5 -38 -4 -38 23
0 16 11 79 25 139 14 61 41 191 60 290 19 99 50 254 70 345 19 91 42 206 51
255 8 50 30 158 49 240 51 228 87 445 81 486 l-6 36 118 7 c136 8 345 29 557
55 172 21 185 22 185 17z m-1227 -160 c63 -19 102 -49 134 -104 25 -42 28 -56
28 -142 0 -90 -47 -352 -135 -765 -11 -49 -29 -148 -40 -219 -27 -171 -37
-207 -76 -294 -22 -48 -50 -89 -84 -122 -108 -105 -186 -133 -449 -160 -108
-11 -243 -27 -299 -36 -57 -8 -106 -13 -108 -11 -6 5 164 862 202 1027 36 152
134 707 134 758 0 17 5 32 11 32 25 0 435 41 444 45 26 10 197 3 238 -9z
m-837 -68 c-4 -13 -18 -79 -32 -148 -14 -69 -38 -186 -54 -260 -16 -74 -43
-216 -60 -315 -66 -381 -182 -1011 -196 -1057 -6 -20 -23 -24 -154 -37 -58 -6
-120 -14 -139 -17 -39 -6 -42 -37 17 251 56 272 168 850 187 960 8 50 29 158
45 242 35 180 47 310 32 340 -15 27 -1 33 81 34 48 1 206 17 271 28 4 0 5 -9
2 -21z m-676 -102 c75 -39 121 -102 133 -182 5 -27 -3 -90 -23 -190 -16 -82
-39 -207 -51 -279 -11 -71 -30 -149 -41 -172 -21 -45 -89 -121 -148 -166 -35
-26 -35 -27 -33 -99 2 -70 39 -372 68 -563 8 -49 13 -90 12 -92 -1 -1 -71 -9
-156 -19 -116 -13 -155 -14 -160 -5 -4 6 -15 105 -24 219 -14 171 -46 408 -62
459 -3 8 -16 6 -44 -8 -22 -10 -47 -19 -55 -19 -18 0 -19 -5 -45 -150 -11 -58
-35 -193 -55 -300 -20 -107 -38 -210 -41 -227 -6 -32 -7 -33 -57 -33 -29 0
-101 -5 -160 -12 -59 -7 -110 -10 -112 -7 -3 2 11 79 30 169 40 187 72 346
108 535 97 509 119 622 138 715 12 58 33 173 48 255 l26 150 104 8 c58 4 161
14 230 21 168 19 324 16 370 -8z m-790 -31 c0 -3 -11 -33 -25 -67 -14 -33 -35
-103 -47 -154 l-22 -93 -35 -5 c-20 -3 -82 -8 -138 -12 -103 -6 -103 -6 -103
-33 0 -27 -37 -231 -64 -356 -8 -38 -20 -101 -26 -140 -20 -134 -39 -241 -80
-455 -61 -322 -100 -534 -100 -540 0 -7 -320 -44 -326 -37 -4 4 56 320 126
667 49 238 160 830 160 850 0 7 -8 9 -20 5 -35 -11 -300 -31 -300 -23 0 5 12
56 26 113 l27 105 -27 38 c-14 21 -26 41 -26 43 0 3 57 9 128 12 197 10 758
62 822 77 46 11 50 11 50 5z m-1284 -152 c-3 -16 -17 -95 -31 -177 -14 -81
-35 -192 -46 -245 -11 -53 -35 -191 -54 -307 -19 -116 -43 -254 -54 -305 -11
-52 -25 -123 -31 -159 -5 -36 -20 -113 -32 -173 -12 -59 -19 -109 -16 -112 5
-5 369 28 451 41 l38 6 -7 -44 c-14 -88 -52 -269 -58 -275 -3 -3 -92 -14 -198
-24 -106 -10 -247 -25 -313 -33 -66 -9 -149 -18 -185 -21 -36 -4 -75 -8 -87
-11 -30 -6 -30 17 2 166 14 63 36 180 51 260 14 80 37 192 50 250 14 57 31
149 39 203 9 54 24 137 34 185 11 48 32 159 46 247 15 88 37 214 51 280 28
140 30 187 8 219 l-15 24 93 7 c51 4 120 11 153 15 114 14 117 14 111 -17z
m-691 -64 c67 -19 121 -63 151 -124 24 -50 26 -63 21 -133 -2 -42 -28 -198
-56 -347 -96 -509 -120 -640 -141 -765 -25 -150 -57 -225 -126 -294 -134 -132
-252 -175 -484 -176 -79 0 -103 4 -145 24 -60 29 -107 76 -134 136 -32 69 -39
14 109 780 33 168 71 368 85 445 30 161 62 237 127 304 89 91 161 122 340 145
133 17 203 19 253 5z m-665 -43 c0 -2 -11 -23 -24 -47 -27 -48 -156 -360 -176
-424 -7 -22 -34 -96 -60 -165 -27 -69 -79 -206 -115 -305 -37 -99 -104 -272
-150 -385 -45 -113 -102 -259 -125 -325 -54 -154 -86 -224 -102 -229 -7 -2
-71 -10 -142 -16 -102 -10 -130 -10 -136 -1 -8 14 -12 43 -40 341 -11 113 -32
311 -46 440 -14 129 -34 318 -44 420 -35 328 -42 355 -104 414 -17 16 -66 55
-109 87 l-77 58 32 5 c40 5 471 39 513 40 l30 1 11 -170 c14 -208 40 -637 54
-880 6 -98 13 -181 15 -184 3 -2 5 4 5 14 0 10 15 64 34 119 19 56 44 135 56
176 12 41 74 224 136 405 116 335 207 560 230 569 7 3 57 10 111 16 54 6 116
15 138 20 45 9 85 12 85 6z m4521 -1603 c-7 -43 -23 -50 -128 -52 -66 -1 -83
-13 -83 -62 0 -20 3 -21 45 -16 25 4 56 9 70 13 21 5 25 3 25 -17 0 -39 -13
-48 -83 -58 -82 -12 -87 -15 -87 -53 l0 -30 63 7 c34 3 75 9 91 12 29 5 29 5
23 -32 -3 -21 -8 -39 -10 -42 -3 -2 -47 -8 -98 -13 -52 -5 -109 -12 -128 -15
-31 -6 -33 -5 -28 17 9 38 56 270 62 309 l5 36 88 7 c48 4 103 11 122 15 57
14 57 14 51 -26z m-424 -46 c-13 -18 -48 -54 -76 -82 -28 -27 -51 -56 -51 -63
0 -7 25 -50 55 -95 53 -79 54 -82 33 -89 -52 -14 -62 -9 -106 57 -23 36 -46
65 -51 65 -22 0 -41 -34 -41 -73 0 -53 -7 -63 -47 -72 -24 -5 -33 -3 -33 7 1
7 18 92 39 188 38 174 38 175 66 178 30 4 30 5 9 -115 -4 -18 -2 -33 3 -33 5
0 45 37 89 81 73 75 124 109 132 87 2 -5 -7 -23 -21 -41z m1133 -2 c0 -19 -4
-35 -8 -35 -5 0 -122 -13 -260 -30 -139 -16 -254 -30 -257 -30 -3 0 -5 14 -5
30 0 22 6 33 23 39 12 5 105 17 207 26 102 9 203 20 225 25 72 14 75 13 75
-25z m-1530 -7 c0 -2 -14 -79 -30 -173 -16 -93 -30 -175 -30 -181 0 -11 -59
-28 -67 -20 -4 4 6 65 54 338 3 15 13 29 22 31 19 5 51 8 51 5z m-256 -54 c33
-34 34 -77 1 -120 -30 -40 -30 -42 -4 -70 27 -29 20 -62 -24 -110 -35 -37 -69
-46 -214 -58 l-71 -6 15 63 c39 166 53 235 53 274 l0 42 73 4 c39 1 88 4 108
5 27 2 43 -4 63 -24z m-651 -45 c12 -6 34 -23 49 -37 26 -24 27 -27 11 -44
-20 -22 -56 -23 -73 -3 -17 20 -43 19 -89 -5 -41 -21 -65 -60 -74 -124 -5 -33
-2 -42 24 -68 33 -34 60 -33 110 3 30 21 79 17 79 -6 0 -25 -80 -83 -131 -95
-43 -11 -53 -10 -81 7 -18 11 -43 35 -56 54 -20 29 -23 42 -18 87 12 106 61
175 151 218 57 27 68 28 98 13z m-353 -47 c-1 -33 -25 -167 -46 -253 -21 -91
-29 -108 -47 -113 -43 -11 -49 -8 -42 27 12 60 67 312 71 328 4 15 64 26 64
11z m-249 -58 c45 -48 19 -164 -42 -187 -34 -13 -35 -27 -9 -86 11 -24 19 -45
18 -46 -2 -2 -20 -8 -41 -13 -33 -9 -39 -8 -44 6 -24 78 -48 106 -85 100 -20
-3 -24 -11 -32 -65 l-9 -63 -33 0 c-28 0 -34 4 -34 21 0 23 46 276 58 319 8
29 39 36 158 39 64 1 73 -1 95 -25z m-391 -39 l0 -44 -57 -3 -58 -3 -3 -40
c-3 -47 -41 -247 -47 -253 -7 -8 -65 -10 -65 -3 0 3 12 68 27 143 15 75 25
139 23 142 -3 2 -27 1 -53 -4 -26 -4 -50 -4 -52 0 -2 4 -2 23 2 43 l6 37 56 1
c44 0 207 21 219 28 1 0 2 -19 2 -44z m-434 -27 c17 -12 37 -30 43 -40 9 -15
6 -20 -20 -34 -29 -15 -34 -15 -63 1 -31 17 -34 17 -70 0 -44 -21 -72 -61 -82
-119 -6 -36 -4 -43 25 -68 39 -35 61 -35 99 -3 30 25 48 30 76 19 25 -10 19
-29 -21 -64 -44 -39 -91 -60 -134 -60 -24 0 -42 11 -77 45 l-45 45 6 65 c8 79
34 133 84 172 85 67 127 77 179 41z m-352 -45 c-3 -16 -7 -33 -9 -39 -2 -6
-34 -14 -72 -18 -107 -11 -113 -13 -113 -50 l0 -32 53 7 c86 12 87 12 87 -21
0 -36 -27 -50 -95 -50 -47 0 -65 -17 -65 -60 0 -21 3 -21 89 -15 l88 7 -6 -38
-6 -39 -65 -6 c-36 -4 -93 -10 -127 -14 l-61 -7 5 43 c3 24 16 107 28 184 l21
140 109 16 c155 23 146 24 139 -8z m-534 -55 c0 -27 -27 -206 -36 -244 -7 -26
-6 -26 32 -21 22 3 61 9 88 12 l49 7 -6 -37 c-3 -21 -8 -40 -11 -42 -6 -6
-239 -34 -243 -29 -2 2 3 37 12 77 26 119 44 222 45 251 0 28 22 47 53 48 11
0 17 -8 17 -22z m-200 -28 c0 -38 -17 -46 -113 -55 -79 -8 -85 -11 -89 -54 -3
-23 -1 -24 68 -22 l71 2 -5 -30 c-4 -32 -2 -31 -106 -45 -46 -6 -44 -4 -52
-46 l-7 -33 91 7 92 8 0 -40 0 -39 -136 -14 -136 -14 6 35 c3 19 17 102 31
185 14 82 25 153 25 157 0 4 21 8 48 9 26 0 70 4 97 9 28 4 65 8 83 9 29 1 32
-2 32 -29z m-492 -187 c3 -31 3 -31 -65 -42 -96 -15 -213 -29 -316 -36 l-88
-7 3 33 c4 39 9 41 193 60 66 6 149 15 185 19 84 9 84 9 88 -27z"/>
<path d="M5871 7639 c-28 -22 -48 -46 -44 -51 3 -6 1 -8 -4 -5 -10 6 -133 -66
-133 -78 0 -4 4 -4 9 -1 11 7 20 -14 14 -31 -3 -7 -11 -13 -19 -13 -9 0 -12
-4 -9 -10 3 -5 -3 -11 -14 -11 -46 -3 -46 -4 -31 -43 4 -13 9 -16 14 -8 4 7
12 12 17 12 5 0 1 -12 -9 -27 -11 -16 -34 -51 -53 -80 -31 -46 -49 -58 -49
-32 0 6 4 8 9 4 12 -7 26 36 14 44 -12 8 -12 51 0 44 5 -3 6 -11 3 -19 -6 -16
10 -29 19 -14 7 12 -38 60 -57 60 -9 0 -9 -3 0 -12 7 -7 12 -21 11 -32 0 -20
-1 -20 -9 2 -7 15 -18 22 -37 22 l-28 0 38 25 c57 39 44 39 -33 0 -38 -19 -70
-39 -70 -44 0 -7 -45 -91 -168 -311 -23 -41 -46 -82 -51 -90 -6 -8 -40 -64
-77 -125 -37 -60 -81 -132 -99 -160 -48 -75 -50 -79 -36 -71 7 5 25 26 41 47
22 32 30 36 39 25 9 -11 7 -15 -11 -20 -22 -6 -22 -7 -4 -18 15 -8 21 -8 24 0
2 7 11 12 21 12 9 0 22 5 29 12 9 9 12 9 12 0 0 -7 -4 -12 -10 -12 -5 0 -10
-6 -10 -14 0 -8 -18 -36 -40 -61 -22 -25 -40 -50 -40 -56 0 -5 -9 -9 -20 -9
-11 0 -21 -6 -21 -12 -1 -7 -2 -20 -3 -28 0 -8 -9 -14 -18 -12 -11 2 -18 -3
-18 -13 0 -9 5 -13 11 -9 6 3 0 -11 -13 -32 -62 -99 -46 -84 56 56 43 58 83
112 89 120 7 8 40 53 73 100 163 228 202 286 185 276 -5 -3 -12 0 -14 6 -4 10
-8 9 -17 -2 -10 -13 -11 -13 -7 0 2 8 11 14 20 14 13 -1 16 6 13 38 -3 29 1
41 14 48 10 5 20 7 23 3 4 -3 4 10 2 30 -5 34 -4 35 23 28 19 -6 30 -3 39 8 6
9 14 13 17 10 4 -3 -3 -18 -15 -33 -12 -15 -19 -29 -16 -32 5 -6 42 43 207
272 58 80 145 192 193 250 48 57 86 104 84 104 -3 0 -27 -18 -56 -41z"/>
<path d="M6400 8315 c-101 -10 -113 -12 -62 -14 76 -1 105 -16 91 -45 -8 -16
-5 -15 10 4 17 20 23 22 30 11 7 -12 10 -11 12 2 3 11 8 14 18 8 10 -7 11 -13
1 -30 -11 -21 -10 -22 27 -15 49 9 53 12 46 29 -3 9 -18 15 -35 15 -16 0 -27
4 -24 9 3 4 -15 7 -39 6 -25 -1 -45 2 -45 7 0 4 24 9 53 10 102 3 117 1 117
-13 0 -6 -9 -8 -22 -3 -21 6 -21 6 -4 -11 10 -11 21 -14 24 -9 4 6 21 10 37
11 17 1 24 -1 17 -4 -6 -2 -9 -9 -6 -15 3 -5 -2 -15 -11 -22 -14 -10 -15 -16
-4 -38 6 -15 21 -28 33 -30 12 -2 22 -11 23 -23 2 -11 0 -15 -3 -8 -3 7 -12 9
-20 6 -11 -4 -12 -8 -4 -13 8 -5 7 -11 -4 -23 -25 -25 -19 -30 12 -9 15 11 68
40 119 65 50 26 95 52 99 59 13 20 11 45 -2 45 -9 0 -10 -5 -3 -19 11 -21 -1
-24 -20 -5 -11 10 -13 9 -7 -3 4 -9 1 -8 -7 3 -13 15 -15 16 -21 2 -9 -23 -21
-18 -21 10 0 23 3 25 30 19 17 -3 27 -3 24 0 -11 12 -155 35 -245 40 -49 2
-145 -2 -214 -9z"/>
<path d="M7464 3673 l-71 -4 -22 -117 c-12 -64 -39 -211 -61 -327 -21 -115
-54 -291 -74 -390 -42 -215 -66 -348 -66 -362 0 -14 201 12 238 31 25 13 32
25 41 68 6 29 27 130 46 223 20 94 53 269 75 390 21 122 51 276 65 343 15 68
24 129 21 137 -6 15 -20 16 -192 8z"/>
<path d="M6015 3520 c-27 -5 -75 -9 -105 -9 l-56 -1 -11 -67 c-6 -38 -21 -113
-33 -168 -23 -105 -60 -318 -56 -322 5 -5 183 19 214 28 18 6 39 21 47 33 8
12 30 112 49 222 19 109 38 213 41 230 6 29 -14 67 -33 63 -4 -1 -29 -5 -57
-9z"/>
<path d="M3230 3228 c-47 -5 -86 -11 -87 -12 -2 -1 -16 -83 -33 -182 -33 -194
-65 -369 -136 -732 -25 -128 -43 -239 -40 -247 4 -10 19 -15 48 -14 47 0 185
23 194 31 3 3 9 37 15 74 5 38 25 141 43 229 66 309 156 798 156 847 0 21 -20
21 -160 6z"/>
</g>
</svg>
